<?xml version="1.0" encoding="UTF-8"?> <svg xmlns="http://www.w3.org/2000/svg" xmlns:xlink="http://www.w3.org/1999/xlink" version="1.1" id="Layer_1" x="0px" y="0px" viewBox="0 0 382.8 360" style="enable-background:new 0 0 382.8 360;" xml:space="preserve"> <style type="text/css"> .st0{fill:#005984;} </style> <path class="st0" d="M167.1,48.6h-48.9c-3,0-5.4-2.4-5.4-5.4s2.4-5.4,5.4-5.4h48.9c3,0,5.4,2.4,5.4,5.4S170.1,48.6,167.1,48.6z"></path> <path class="st0" d="M142.6,329c-13.5,0-24.4-11-24.4-24.5s11-24.5,24.4-24.5s24.4,11,24.4,24.5C167.1,318,156.1,329,142.6,329z M142.6,291c-7.5,0-13.6,6.1-13.6,13.6s6.1,13.6,13.6,13.6s13.6-6.1,13.6-13.6S150.1,291,142.6,291z"></path> <g> <path class="st0" d="M329,134.7c4.8,5.9,4.1,15.2-1.9,20.2c-5.5,4.6-13.2,3.6-17.6-1.9c-20-24.9-48.7-39.1-78.6-39.1h-0.4 c-30.1,0.1-58.8,14.7-78.7,39.9c-4.4,5.5-12,6.5-17.5,2.1c-6.1-5-6.8-14.3-2.1-20.2c24.1-30.5,59.2-49.5,98.2-49.7h0.6 c18.9,0,37.1,4.4,54.2,12.9c1.5,0.7,2.1,2.5,1.3,4s-2.5,2.1-4,1.3c-16.2-8.2-33.6-12.3-51.5-12.3h-0.5 c-35.8,0.2-69.9,17.4-93.6,47.4c-2.8,3.6-2.2,9.1,1.2,11.9c2.9,2.4,6.8,1.8,9.1-1.1c21-26.6,51.4-42,83.3-42.1h0.5 c31.7,0,62.1,15.1,83.2,41.4c2.3,2.9,6.2,3.4,9.1,1c3.4-2.8,3.9-8.4,1.1-11.9c-8.7-10.9-18.9-20.1-30.2-27.5 c-1.4-0.9-1.8-2.7-0.9-4.1c0.9-1.4,2.7-1.8,4.1-0.9C309.2,113.7,319.9,123.4,329,134.7z"></path> <path class="st0" d="M296.4,160.7c5.3,6,4.6,15.7-1.5,20.7c-5.3,4.3-12.7,3.7-17.3-1.6c-12.5-14.1-29.1-21.9-46.8-21.9 c-0.1,0-0.2,0-0.3,0c-17.8,0.1-34.5,8-46.9,22.4c-4.6,5.3-12,6-17.3,1.8l0,0c-6.1-5-6.9-14.6-1.7-20.7 c16.7-19.4,40.1-31.2,65.7-31.3C256.2,129.9,279.7,141.6,296.4,160.7z M291.1,176.8c3.5-2.9,3.9-8.7,0.8-12.2 c-16.2-18.5-38-28.7-61.2-28.7c-0.1,0-0.2,0-0.4,0c-23.3,0.1-45.1,10.5-61.3,29.3c-1.5,1.7-2.2,4.1-2,6.5c0.2,2.3,1.3,4.4,2.9,5.7 l0,0l0,0c2.8,2.2,6.6,1.8,9.1-1c13.5-15.6,31.8-24.3,51.3-24.4h0.3c19.5,0,37.7,8.5,51.3,23.9C284.6,178.7,288.4,179.1,291.1,176.8 z"></path> <path class="st0" d="M262.8,186.3c3,2.6,4.7,6.5,4.7,10.7c0,4.4-1.9,8.5-5.1,11.1c-4.9,4-11.5,3.6-16-0.3c-2.7-2.3-5.7-4-8.9-5 c-1.6-0.5-2.5-2.1-2-3.7c0.5-1.6,2.1-2.5,3.7-2c4.1,1.2,7.8,3.3,11.1,6.2c2.4,2.1,5.8,2.3,8.4,0.2c3.8-3.2,3.9-9.6,0.2-12.8 c-8.1-7.1-17.8-10.9-28.1-10.9h-0.2c-10.4,0.1-20.1,3.9-28.2,11.1c-3.7,3.3-3.4,9.7,0.4,12.8c2.5,2.1,5.9,1.9,8.3-0.3 c3.8-3.3,8.2-5.7,12.9-6.8c1.6-0.4,3.2,0.6,3.6,2.2c0.4,1.6-0.6,3.2-2.2,3.6c-3.8,0.9-7.3,2.8-10.4,5.5c-4.6,4-11.1,4.4-16,0.4 c-6.7-5.4-6.9-16.2-0.6-21.9c9.1-8.1,20.5-12.6,32.2-12.6h0.2C242.3,173.9,253.7,178.3,262.8,186.3z"></path> <path class="st0" d="M230.6,220.7c8.5,0,15.4,6.9,15.4,15.4s-6.9,15.4-15.4,15.4c-8.5,0-15.4-6.9-15.4-15.4 C215.2,227.6,222.1,220.7,230.6,220.7z M240,236.1c0-5.2-4.2-9.5-9.4-9.5c-5.2,0-9.4,4.2-9.4,9.5s4.2,9.5,9.4,9.5 C235.8,245.6,240,241.3,240,236.1z"></path> </g> <path class="st0" d="M223.9,262.3v72.1c0,5.8-2.9,9-4.1,9H65.5c-1.2,0-4.1-3.1-4.1-9V22.2c0.9-3.2,2.7-4.9,3.6-4.9h154.9 c1.2,0,4.1,3.1,4.1,9v48h13.5v-48c0-12.6-7.8-22.5-17.6-22.5H64.9c-9.9,0-17.6,9.9-17.6,22.5l0.5,6.8v301.3 c0,12.6,7.7,22.5,17.6,22.5h154.3c9.9,0,17.6-9.9,17.6-22.5v-72.1H223.9z"></path> </svg> 