<?xml version="1.0" encoding="UTF-8" standalone="no"?>
<!DOCTYPE svg PUBLIC "-//W3C//DTD SVG 1.1//EN" "http://www.w3.org/Graphics/SVG/1.1/DTD/svg11.dtd">
<svg width="196px" height="22px" version="1.1" xmlns="http://www.w3.org/2000/svg" xmlns:xlink="http://www.w3.org/1999/xlink" xml:space="preserve" xmlns:serif="http://www.serif.com/" style="fill-rule:evenodd;clip-rule:evenodd;stroke-linejoin:round;stroke-miterlimit:2;">
    <g id="Artboard2" transform="matrix(0.87102,0,0,0.673804,0.757023,5.24532)">
        <rect x="-0.869" y="-7.785" width="223.953" height="31.682" style="fill:none;"/>
        <clipPath id="_clip1">
            <rect x="-0.869" y="-7.785" width="223.953" height="31.682"/>
        </clipPath>
        <g clip-path="url(#_clip1)">
            <g id="Artboard1" transform="matrix(0.0732697,0,0,0.088015,-10.0316,-18.2032)">
                <rect x="140.707" y="126.623" width="3033.38" height="352.925" style="fill:none;"/>
                <g id="Layer-1" serif:id="Layer 1" transform="matrix(4.23538,0,0,4.5578,-13.5258,-21.7917)">
                    <g transform="matrix(1,0,0,1,240.65,78.0116)">
                        <path d="M0,-12.264C0,-14.74 -0.397,-16.996 -1.188,-19.011C-1.981,-21.023 -3.086,-22.738 -4.52,-24.172C-5.954,-25.607 -7.671,-26.714 -9.7,-27.506C-11.71,-28.293 -13.918,-28.692 -16.328,-28.692L-33.349,-28.692C-35.789,-28.692 -38.017,-28.295 -40.026,-27.506C-42.04,-26.715 -43.771,-25.605 -45.223,-24.172C-46.676,-22.738 -47.797,-21.023 -48.587,-19.011C-49.379,-16.996 -49.775,-14.74 -49.775,-12.264L-49.775,-0.97C-49.775,1.503 -49.379,3.747 -48.587,5.757C-47.797,7.77 -46.674,9.501 -45.223,10.934C-43.769,12.37 -42.04,13.478 -40.026,14.268C-38.017,15.057 -35.791,15.457 -33.349,15.457L-16.428,15.457C-13.986,15.457 -11.76,15.057 -9.731,14.268C-7.719,13.476 -5.99,12.371 -4.552,10.934C-3.1,9.501 -1.981,7.768 -1.188,5.757C-0.397,3.745 0,1.504 0,-0.97L0,-12.264ZM-202.614,10.293L-202.614,-23.531C-202.614,-32.885 -195.119,-41.261 -184.886,-41.261L-125.595,-41.261L-101.237,8.644L-76.795,-41.261L-62.777,-41.261L-95.595,25.563C-96.108,26.588 -96.867,27.412 -97.887,28.041C-98.893,28.684 -100.015,28.997 -101.237,28.997C-102.441,28.997 -103.546,28.684 -104.551,28.041C-105.574,27.412 -106.348,26.588 -106.893,25.563L-133.508,-28.71L-184.886,-28.71C-187.743,-28.71 -190.063,-26.392 -190.063,-23.531L-190.063,-18.122C-190.063,-15.261 -187.745,-12.943 -184.886,-12.943L-139.663,-12.943L-139.663,-0.295L-184.886,-0.295C-187.745,-0.295 -190.063,2.023 -190.063,4.884L-190.063,10.293C-190.063,13.155 -187.745,15.473 -184.886,15.473L-139.663,15.473L-139.663,28.025L-185.086,28.025C-194.797,27.913 -202.614,20.019 -202.614,10.293ZM12.564,-0.97C12.564,3.249 11.84,7.129 10.391,10.673C8.937,14.22 6.926,17.272 4.353,19.843C1.763,22.43 -1.287,24.429 -4.816,25.863C-8.328,27.298 -12.173,28.025 -16.328,28.025L-33.349,28.025C-37.504,28.025 -41.348,27.296 -44.893,25.863C-48.435,24.429 -51.488,22.43 -54.063,19.843C-56.653,17.272 -58.668,14.22 -60.133,10.673C-61.601,7.129 -62.325,3.254 -62.325,-0.97L-62.325,-12.264C-62.325,-16.453 -61.601,-20.33 -60.133,-23.892C-58.664,-27.439 -56.653,-30.507 -54.063,-33.063C-51.488,-35.618 -48.439,-37.633 -44.893,-39.082C-41.349,-40.534 -37.506,-41.261 -33.349,-41.261L-16.328,-41.261C-12.173,-41.261 -8.328,-40.534 -4.816,-39.082C-1.287,-37.631 1.763,-35.618 4.353,-33.063C6.926,-30.507 8.937,-27.439 10.391,-23.892C11.84,-20.33 12.564,-16.453 12.564,-12.264L12.564,-0.97Z" style="fill:rgb(117,117,117);fill-rule:nonzero;"/>
                    </g>
                    <g transform="matrix(1,0,0,1,517.422,92.4901)">
                        <path d="M0,-43.204L0,-22.035L38.957,-22.035C41.817,-22.035 44.135,-24.353 44.135,-27.212L44.135,-38.027C44.135,-40.888 41.817,-43.204 38.957,-43.204L0,-43.204ZM-41.192,4.494L-36.767,13.527L-22.749,13.527L-55.569,-53.297C-56.081,-54.322 -56.841,-55.146 -57.861,-55.773C-58.868,-56.418 -59.99,-56.731 -61.212,-56.731C-62.413,-56.731 -63.52,-56.418 -64.526,-55.773C-65.546,-55.146 -66.323,-54.322 -66.868,-53.297L-99.638,13.527L-85.57,13.527L-81.176,4.524L-41.192,4.494ZM-75,-8.128L-61.212,-36.378L-47.374,-8.128L-75,-8.128ZM-253.997,-3.996L-253.997,-38.235L-253.995,-38.345L-253.995,-38.455L-253.991,-38.486L-253.991,-38.508L-253.988,-38.562L-253.949,-39.351L-253.945,-39.393L-253.945,-39.407L-253.938,-39.467L-253.935,-39.522L-253.919,-39.696L-253.907,-39.812L-253.904,-39.84L-253.902,-39.872L-253.895,-39.93L-253.887,-39.99L-253.883,-40.048L-253.877,-40.108L-253.869,-40.165L-253.859,-40.225L-253.845,-40.343L-253.839,-40.403L-253.829,-40.463L-253.821,-40.523L-253.813,-40.581L-253.803,-40.643L-253.795,-40.701L-253.791,-40.727L-253.787,-40.763L-253.777,-40.825L-253.767,-40.882L-253.755,-40.945L-253.747,-41.007L-253.737,-41.066L-253.725,-41.128L-253.721,-41.166L-253.715,-41.19L-253.703,-41.252L-253.691,-41.312C-252.163,-49.47 -245.048,-55.661 -236.468,-55.757L-191.044,-55.757L-191.044,-43.204L-236.267,-43.204C-239.128,-43.204 -241.444,-40.888 -241.444,-38.027L-241.444,-4.201C-241.444,-1.341 -239.128,0.977 -236.267,0.977L-191.044,0.977L-191.044,13.527L-236.468,13.527C-245.048,13.431 -252.163,7.24 -253.691,-0.919L-253.703,-0.979L-253.715,-1.04L-253.721,-1.064L-253.725,-1.102L-253.737,-1.162L-253.747,-1.224L-253.755,-1.286L-253.767,-1.348L-253.777,-1.406L-253.787,-1.468L-253.791,-1.501L-253.795,-1.528L-253.803,-1.587L-253.813,-1.649L-253.821,-1.707L-253.829,-1.767L-253.839,-1.827L-253.845,-1.887L-253.859,-2.005L-253.869,-2.063L-253.877,-2.123L-253.883,-2.183L-253.887,-2.24L-253.895,-2.3L-253.902,-2.358L-253.904,-2.388L-253.907,-2.418L-253.913,-2.476L-253.919,-2.532L-253.935,-2.707L-253.938,-2.764L-253.945,-2.824L-253.945,-2.837L-253.949,-2.879L-253.988,-3.666L-253.991,-3.721L-253.991,-3.744L-253.995,-3.776L-253.995,-3.886L-253.997,-3.996ZM0,-9.482L0,13.527L-12.565,13.527L-12.565,-49.423C-12.565,-50.296 -12.403,-51.123 -12.073,-51.898C-11.756,-52.674 -11.31,-53.349 -10.752,-53.928C-10.191,-54.505 -9.514,-54.948 -8.739,-55.278C-7.966,-55.592 -7.124,-55.757 -6.234,-55.757L39.157,-55.757C47.736,-55.661 54.854,-49.47 56.381,-41.312L56.393,-41.252L56.405,-41.19L56.409,-41.166L56.416,-41.128L56.426,-41.066L56.436,-41.007L56.445,-40.945L56.457,-40.882L56.467,-40.825L56.476,-40.763L56.481,-40.727L56.486,-40.701L56.493,-40.643L56.501,-40.581L56.512,-40.523L56.519,-40.463L56.527,-40.403L56.536,-40.343L56.549,-40.225L56.56,-40.165L56.565,-40.108L56.573,-40.048L56.577,-39.99L56.586,-39.93L56.591,-39.872L56.594,-39.84L56.596,-39.812L56.603,-39.754L56.607,-39.696L56.625,-39.522L56.629,-39.467L56.634,-39.407L56.634,-39.393L56.639,-39.351L56.679,-38.562L56.681,-38.508L56.681,-38.486L56.683,-38.455L56.683,-38.345L56.685,-38.235L56.685,-27.004L56.683,-26.896L56.683,-26.784L56.681,-26.755L56.681,-26.731L56.679,-26.676L56.639,-25.89L56.634,-25.846L56.634,-25.832L56.629,-25.774L56.625,-25.716L56.607,-25.542L56.603,-25.487L56.596,-25.427L56.594,-25.399L56.591,-25.369L56.586,-25.309L56.577,-25.251L56.573,-25.191L56.565,-25.133L56.56,-25.073L56.549,-25.013L56.536,-24.896L56.527,-24.838L56.519,-24.776L56.512,-24.718L56.501,-24.658L56.493,-24.596L56.486,-24.538L56.481,-24.513L56.476,-24.476L56.467,-24.416L56.457,-24.356L56.445,-24.295L56.436,-24.235L56.416,-24.111L56.405,-24.051L56.381,-23.927C54.854,-15.771 47.736,-9.58 39.157,-9.482L33.026,-9.482L59.67,13.527L40.259,13.527L13.659,-9.482L0,-9.482ZM68.379,-3.996L68.379,-38.027C68.379,-47.827 76.317,-55.757 86.109,-55.757L137.086,-55.757L137.086,-43.204L86.109,-43.204C83.247,-43.204 80.932,-40.888 80.932,-38.027L80.932,-4.201C80.932,-1.341 83.247,0.977 86.109,0.977L119.935,0.977C122.794,0.977 125.112,-1.341 125.112,-4.201L125.095,-14.789L91.665,-14.789L91.665,-27.441L131.327,-27.441C134.84,-27.441 137.663,-24.634 137.663,-21.124L137.663,-4.201C137.663,5.125 130.08,13.527 119.935,13.527L85.907,13.527C77.328,13.431 70.212,7.24 68.683,-0.919L68.671,-0.979L68.66,-1.04L68.655,-1.064L68.651,-1.102L68.638,-1.162L68.629,-1.224L68.621,-1.286L68.609,-1.348L68.599,-1.406L68.589,-1.468L68.585,-1.501L68.579,-1.528L68.573,-1.587L68.563,-1.649L68.553,-1.707L68.547,-1.767L68.537,-1.827L68.531,-1.887L68.517,-2.005L68.507,-2.063L68.499,-2.123L68.493,-2.183L68.487,-2.24L68.481,-2.3L68.473,-2.358L68.469,-2.418L68.461,-2.476L68.457,-2.532L68.441,-2.707L68.435,-2.764L68.431,-2.824L68.431,-2.837L68.427,-2.879L68.387,-3.666L68.383,-3.721L68.383,-3.744L68.382,-3.776L68.382,-3.886L68.379,-3.996ZM150.435,-4.201L150.435,-38.027C150.435,-47.382 157.928,-55.757 168.163,-55.757L213.386,-55.757L213.386,-43.204L168.163,-43.204C165.304,-43.204 162.986,-40.888 162.986,-38.027L162.986,-32.618C162.986,-29.757 165.304,-27.441 168.163,-27.441L213.386,-27.441L213.386,-14.789L168.163,-14.789C165.304,-14.789 162.986,-12.473 162.986,-9.612L162.986,-4.201C162.986,-1.341 165.304,0.977 168.163,0.977L213.386,0.977L213.386,13.527L167.963,13.527C158.252,13.417 150.435,5.52 150.435,-4.201ZM-166.504,-27.441L-122.387,-27.441L-122.387,-55.757L-109.818,-55.757L-109.818,13.527L-122.387,13.527L-122.387,-14.789L-166.504,-14.789L-166.504,13.527L-179.07,13.527L-179.07,-55.757L-166.504,-55.757L-166.504,-27.441Z" style="fill:rgb(117,117,117);fill-rule:nonzero;"/>
                    </g>
                    <g transform="matrix(1,0,0,1,743.958,43.5959)">
                        <path d="M0,-0.74C0.263,-0.757 0.495,-0.803 0.697,-0.883C0.898,-0.961 1.061,-1.087 1.185,-1.261C1.308,-1.434 1.369,-1.672 1.369,-1.974C1.369,-2.232 1.321,-2.439 1.227,-2.596C1.131,-2.753 1.002,-2.879 0.84,-2.974C0.678,-3.069 0.495,-3.134 0.294,-3.167C0.093,-3.201 -0.12,-3.218 -0.345,-3.218L-1.974,-3.218L-1.974,-0.715L-0.798,-0.715C-0.529,-0.715 -0.264,-0.722 0,-0.74M-2.864,3.25L-2.864,-3.973L-0.093,-3.973C0.725,-3.973 1.321,-3.803 1.697,-3.462C2.072,-3.12 2.26,-2.624 2.26,-1.974C2.26,-1.661 2.212,-1.386 2.117,-1.151C2.021,-0.916 1.89,-0.717 1.722,-0.554C1.554,-0.392 1.36,-0.263 1.143,-0.169C0.924,-0.073 0.691,-0.003 0.445,0.041L2.596,3.25L1.554,3.25L-0.479,0.041L-1.974,0.041L-1.974,3.25L-2.864,3.25ZM-2.705,-5.301C-3.349,-5.02 -3.906,-4.639 -4.376,-4.158C-4.847,-3.677 -5.214,-3.111 -5.477,-2.462C-5.74,-1.812 -5.872,-1.112 -5.872,-0.362C-5.872,0.389 -5.74,1.089 -5.477,1.739C-5.214,2.388 -4.847,2.953 -4.376,3.435C-3.906,3.917 -3.349,4.298 -2.705,4.577C-2.061,4.858 -1.358,4.997 -0.597,4.997C0.154,4.997 0.851,4.858 1.495,4.577C2.139,4.298 2.696,3.917 3.167,3.435C3.637,2.953 4.007,2.388 4.275,1.739C4.544,1.089 4.679,0.389 4.679,-0.362C4.679,-1.112 4.544,-1.812 4.275,-2.462C4.007,-3.111 3.637,-3.677 3.167,-4.158C2.696,-4.639 2.139,-5.02 1.495,-5.301C0.851,-5.581 0.154,-5.72 -0.597,-5.72C-1.358,-5.72 -2.061,-5.581 -2.705,-5.301M1.873,-6.133C2.635,-5.813 3.296,-5.371 3.855,-4.805C4.415,-4.24 4.855,-3.576 5.175,-2.814C5.493,-2.052 5.653,-1.235 5.653,-0.362C5.653,0.524 5.493,1.344 5.175,2.1C4.855,2.856 4.415,3.514 3.855,4.073C3.296,4.634 2.635,5.073 1.873,5.393C1.111,5.711 0.288,5.871 -0.597,5.871C-1.481,5.871 -2.305,5.711 -3.066,5.393C-3.828,5.073 -4.488,4.634 -5.049,4.073C-5.608,3.514 -6.048,2.856 -6.367,2.1C-6.687,1.344 -6.846,0.524 -6.846,-0.362C-6.846,-1.235 -6.687,-2.052 -6.367,-2.814C-6.048,-3.576 -5.608,-4.24 -5.049,-4.805C-4.488,-5.371 -3.828,-5.813 -3.066,-6.133C-2.305,-6.452 -1.481,-6.611 -0.597,-6.611C0.288,-6.611 1.111,-6.452 1.873,-6.133" style="fill:rgb(117,117,117);fill-rule:nonzero;"/>
                    </g>
                </g>
            </g>
        </g>
    </g>
</svg>
