<?xml version="1.0" encoding="UTF-8" standalone="no"?> <svg xmlns="http://www.w3.org/2000/svg" xmlns:xlink="http://www.w3.org/1999/xlink" xmlns:serif="http://www.serif.com/" width="73px" height="73px" version="1.1" xml:space="preserve" style="fill-rule:evenodd;clip-rule:evenodd;stroke-linejoin:round;stroke-miterlimit:2;"> <g transform="matrix(1,0,0,1,1.95117,12.5643)"> <path d="M64.676,18.354L60.71,15.181C60.694,15.168 60.679,15.153 60.663,15.14L64.355,14.401C64.849,14.303 65.204,13.869 65.204,13.365L65.204,10.194C65.204,9.61 64.73,9.137 64.147,9.137L58.861,9.137C58.278,9.137 57.804,9.61 57.804,10.194L57.804,12.046C57.78,12.013 57.756,11.98 57.731,11.948C57.665,11.764 57.546,11.613 57.396,11.494C56.801,10.652 56.292,9.808 55.96,9.079L54.173,5.149C53.035,2.643 49.986,0.68 47.234,0.68L21.864,0.68C19.111,0.68 16.063,2.643 14.924,5.149L13.139,9.078C12.807,9.807 12.298,10.652 11.702,11.494C11.552,11.613 11.435,11.764 11.367,11.948C11.343,11.98 11.32,12.012 11.294,12.046L11.294,10.194C11.294,9.61 10.821,9.137 10.237,9.137L4.951,9.137C4.367,9.137 3.894,9.61 3.894,10.194L3.894,13.365C3.894,13.869 4.249,14.303 4.744,14.401L8.436,15.14C8.42,15.153 8.404,15.168 8.389,15.181L4.421,18.354C2.347,20.014 0.723,23.394 0.723,26.05L0.723,44.02C0.723,45.768 2.145,47.191 3.894,47.191L12.35,47.191C14.099,47.191 15.522,45.768 15.522,44.02L15.522,41.906L53.576,41.906L53.576,44.02C53.576,45.768 54.999,47.191 56.747,47.191L65.204,47.191C66.952,47.191 68.375,45.768 68.375,44.02L68.375,26.05C68.375,23.394 66.75,20.014 64.676,18.354ZM55.071,39.792L52.647,37.368C51.618,36.339 49.745,35.563 48.291,35.563L20.278,35.563C18.824,35.563 16.951,36.339 15.922,37.368L13.498,39.792L6.008,39.792C4.26,39.792 2.837,38.369 2.837,36.621L2.837,31.335L3.894,31.335L3.894,32.392C3.894,34.724 5.79,36.621 8.122,36.621L11.293,36.621C11.877,36.621 12.35,36.147 12.35,35.563C12.35,34.98 11.877,34.506 11.293,34.506L8.122,34.506C6.956,34.506 6.008,33.558 6.008,32.392L6.008,31.335L8.122,31.335C9,31.335 10.363,31.9 10.984,32.52C11.19,32.726 11.46,32.83 11.731,32.83C12.002,32.83 12.272,32.726 12.478,32.52C12.892,32.107 12.892,31.439 12.478,31.025C11.45,29.997 9.578,29.221 8.122,29.221L2.837,29.221L2.837,26.05C2.837,25.677 2.896,25.274 2.979,24.863C3.656,25.569 4.64,26.05 6.008,26.05L14.464,26.05C14.745,26.05 15.013,25.939 15.212,25.74L16.579,24.373L17.946,25.74C18.143,25.939 18.413,26.05 18.693,26.05L30.94,26.05L33.802,28.911C34.008,29.117 34.278,29.221 34.549,29.221C34.819,29.221 35.09,29.117 35.296,28.911L38.158,26.05L50.405,26.05C50.685,26.05 50.955,25.939 51.152,25.74L52.519,24.373L53.886,25.74C54.083,25.939 54.353,26.05 54.633,26.05L63.09,26.05C64.457,26.05 65.442,25.569 66.118,24.863C66.202,25.274 66.261,25.677 66.261,26.05L66.261,29.221L60.975,29.221C59.521,29.221 57.648,29.997 56.619,31.025C56.206,31.439 56.206,32.107 56.619,32.52C56.826,32.726 57.096,32.83 57.367,32.83C57.637,32.83 57.908,32.726 58.114,32.52C58.734,31.9 60.098,31.335 60.975,31.335L63.09,31.335L63.09,32.392C63.09,33.558 62.142,34.506 60.975,34.506L57.804,34.506C57.221,34.506 56.747,34.98 56.747,35.563C56.747,36.147 57.221,36.621 57.804,36.621L60.975,36.621C63.307,36.621 65.204,34.724 65.204,32.392L65.204,31.335L66.261,31.335L66.261,36.621C66.261,38.369 64.838,39.792 63.09,39.792L55.071,39.792ZM52.081,39.792L16.488,39.792L17.417,38.862C18.037,38.242 19.401,37.678 20.278,37.678L48.291,37.678C49.168,37.678 50.532,38.242 51.152,38.862L52.081,39.792ZM12.942,13.365L56.155,13.365C57.18,14.719 58.35,16 59.389,16.832L60.661,17.849L53.184,20.84C53.183,20.84 53.183,20.841 53.182,20.841C53.054,20.892 52.933,20.97 52.83,21.073L49.967,23.936L37.72,23.936C37.44,23.936 37.17,24.047 36.973,24.245L34.549,26.669L32.125,24.245C31.927,24.047 31.658,23.936 31.378,23.936L19.13,23.936L17.326,22.131L16.269,21.074C16.165,20.971 16.045,20.893 15.917,20.842C15.916,20.842 15.916,20.841 15.915,20.841L8.438,17.85L9.71,16.833C10.748,16 11.918,14.719 12.942,13.365ZM65.141,22.264C64.929,23.369 64.244,23.936 63.09,23.936L55.071,23.936L54.014,22.879L54.17,22.722L62.558,19.367L63.355,20.006C64.025,20.541 64.644,21.356 65.141,22.264ZM59.919,11.251L63.09,11.251L63.09,12.498L59.919,13.132L59.919,11.251ZM15.062,9.953L16.847,6.025C17.644,4.273 19.941,2.794 21.864,2.794L47.234,2.794C49.156,2.794 51.454,4.273 52.249,6.024L54.036,9.953C54.222,10.361 54.464,10.802 54.729,11.251L14.368,11.251C14.634,10.802 14.877,10.361 15.062,9.953ZM6.008,11.251L9.179,11.251L9.179,13.132L6.008,12.498L6.008,11.251ZM5.742,20.006L6.539,19.367L14.928,22.722L15.084,22.879L14.027,23.936L6.008,23.936C4.854,23.936 4.169,23.369 3.956,22.264C4.454,21.356 5.071,20.541 5.742,20.006ZM12.35,45.077L3.894,45.077C3.311,45.077 2.837,44.602 2.837,44.02L2.837,40.822C3.723,41.493 4.814,41.906 6.008,41.906L13.408,41.906L13.408,44.02C13.408,44.602 12.933,45.077 12.35,45.077ZM65.204,45.077L56.747,45.077C56.165,45.077 55.69,44.602 55.69,44.02L55.69,41.906L63.09,41.906C64.284,41.906 65.375,41.493 66.261,40.822L66.261,44.02C66.261,44.602 65.786,45.077 65.204,45.077Z" style="fill:rgb(0,86,125);fill-rule:nonzero;"></path> </g> </svg> 