<?xml version="1.0" encoding="UTF-8" standalone="no"?> <svg xmlns="http://www.w3.org/2000/svg" xmlns:xlink="http://www.w3.org/1999/xlink" xmlns:serif="http://www.serif.com/" width="73px" height="73px" version="1.1" xml:space="preserve" style="fill-rule:evenodd;clip-rule:evenodd;stroke-linejoin:round;stroke-miterlimit:2;"> <path d="M51.434,31.046C51.326,30.875 51.177,30.733 50.999,30.635C50.822,30.537 50.623,30.485 50.42,30.486L37.302,30.486L37.302,12.597C37.3,12.33 37.209,12.071 37.043,11.862C36.876,11.653 36.645,11.506 36.385,11.444C36.125,11.382 35.852,11.409 35.61,11.521C35.367,11.633 35.169,11.823 35.048,12.06L20.737,40.683C20.645,40.864 20.601,41.066 20.61,41.269C20.618,41.472 20.679,41.67 20.785,41.843C20.891,42.016 21.04,42.16 21.218,42.259C21.395,42.359 21.595,42.411 21.798,42.412L34.916,42.412L34.916,60.301C34.917,60.569 35.008,60.828 35.175,61.038C35.341,61.248 35.574,61.396 35.835,61.457C35.924,61.481 36.016,61.493 36.109,61.493C36.329,61.493 36.545,61.431 36.732,61.315C36.92,61.199 37.071,61.034 37.17,60.837L51.481,32.215C51.574,32.033 51.618,31.829 51.609,31.625C51.601,31.42 51.541,31.221 51.434,31.046ZM37.302,55.244L37.302,41.219C37.302,40.903 37.176,40.6 36.952,40.376C36.728,40.152 36.425,40.027 36.109,40.027L23.73,40.027L34.916,17.654L34.916,31.679C34.916,31.995 35.042,32.298 35.266,32.522C35.489,32.746 35.793,32.871 36.109,32.871L48.488,32.871L37.302,55.244Z" style="fill:rgb(0,86,125);fill-rule:nonzero;"></path> <path d="M65.22,15.674C66.127,14.533 66.583,13.098 66.501,11.643C66.42,10.188 65.807,8.813 64.779,7.779L61.404,4.404C61.177,4.189 60.876,4.069 60.563,4.069C60.25,4.069 59.949,4.189 59.722,4.404L58.876,5.251L55.501,1.876L53.819,3.558L57.194,6.933L55.501,8.626L52.126,5.251L50.444,6.933L53.819,10.308L52.972,11.154C52.75,11.378 52.626,11.68 52.626,11.995C52.626,12.31 52.75,12.612 52.972,12.836L56.347,16.211C57.251,17.122 58.427,17.713 59.697,17.894C60.967,18.074 62.262,17.835 63.384,17.213C67.382,22.829 69.521,29.555 69.502,36.449C69.497,41.929 68.145,47.323 65.564,52.157C62.984,56.991 59.255,61.117 54.705,64.171C50.155,67.224 44.924,69.112 39.473,69.669C34.021,70.225 28.517,69.433 23.444,67.361L22.538,69.567C27.973,71.788 33.871,72.638 39.712,72.042C45.553,71.446 51.158,69.424 56.033,66.152C60.908,62.88 64.904,58.46 67.669,53.28C70.433,48.1 71.882,42.32 71.887,36.449C71.908,28.995 69.575,21.724 65.22,15.674ZM63.097,14.529C62.422,15.194 61.511,15.567 60.563,15.567C59.615,15.567 58.705,15.194 58.029,14.529L55.501,11.989L60.569,6.933L63.097,9.461C63.768,10.134 64.144,11.045 64.144,11.995C64.144,12.945 63.768,13.856 63.097,14.529Z" style="fill:rgb(0,86,125);fill-rule:nonzero;"></path> <path d="M36.109,0.671C26.624,0.683 17.53,4.456 10.823,11.163C4.116,17.87 0.343,26.964 0.331,36.449C0.31,43.903 2.643,51.174 6.998,57.224C6.092,58.365 5.636,59.8 5.717,61.255C5.798,62.71 6.411,64.085 7.439,65.118L10.814,68.494C10.923,68.604 11.053,68.692 11.196,68.752C11.34,68.811 11.494,68.841 11.649,68.839C11.806,68.841 11.962,68.811 12.107,68.752C12.253,68.692 12.385,68.605 12.496,68.494L13.343,67.647L16.718,71.022L18.399,69.34L15.024,65.965L16.718,64.272L20.093,67.647L21.774,65.965L18.399,62.59L19.246,61.743C19.468,61.52 19.593,61.218 19.593,60.903C19.593,60.588 19.468,60.285 19.246,60.062L15.871,56.687C14.962,55.785 13.787,55.2 12.519,55.019C11.251,54.839 9.959,55.072 8.835,55.685C4.837,50.069 2.697,43.342 2.717,36.449C2.726,27.596 6.248,19.108 12.508,12.848C18.768,6.587 27.256,3.066 36.109,3.056C40.454,3.047 44.757,3.894 48.774,5.549L49.681,3.331C45.373,1.568 40.763,0.664 36.109,0.671ZM9.121,58.368C9.797,57.704 10.707,57.331 11.655,57.331C12.603,57.331 13.513,57.704 14.189,58.368L16.718,60.909L11.649,65.965L9.121,63.437C8.451,62.764 8.074,61.853 8.074,60.903C8.074,59.953 8.451,59.042 9.121,58.368Z" style="fill:rgb(0,86,125);fill-rule:nonzero;"></path> </svg> 