<svg width="19" height="20" viewBox="0 0 19 20" fill="none" xmlns="http://www.w3.org/2000/svg">
<path d="M15.7634 8.15402C15.7634 8.36272 15.6897 8.55915 15.5424 8.70647L8.87612 15.3728C8.7288 15.5201 8.52009 15.606 8.31138 15.606C8.11496 15.606 7.90625 15.5201 7.75893 15.3728L3.31473 10.9286C3.16741 10.7812 3.09375 10.5848 3.09375 10.3761C3.09375 10.1674 3.16741 9.9587 3.31473 9.81138L4.43192 8.70647C4.57924 8.55915 4.77567 8.47321 4.98438 8.47321C5.19308 8.47321 5.38951 8.55915 5.53683 8.70647L8.31138 11.481L13.3203 6.48438C13.4676 6.33705 13.6641 6.25112 13.8728 6.25112C14.0815 6.25112 14.2779 6.33705 14.4252 6.48438L15.5424 7.58929C15.6897 7.73661 15.7634 7.94531 15.7634 8.15402ZM18.8571 10.1429C18.8571 4.9375 14.6339 0.714285 9.42857 0.714285C4.22321 0.714285 0 4.9375 0 10.1429C0 15.3482 4.22321 19.5714 9.42857 19.5714C14.6339 19.5714 18.8571 15.3482 18.8571 10.1429Z" fill="#B2D235"/>
</svg>
