<svg width="126" height="98" viewBox="0 0 126 98" fill="none" xmlns="http://www.w3.org/2000/svg">
<path fill-rule="evenodd" clip-rule="evenodd" d="M22.5388 17.0889C44.6056 -5.02964 80.3941 -5.02964 102.461 17.0889C110.385 25.0313 115.463 34.7506 117.692 44.9662L120.664 40.7596C121.461 39.632 123.021 39.3638 124.149 40.1605C125.276 40.9573 125.545 42.5173 124.748 43.6449L118.219 52.8848C117.837 53.4263 117.254 53.7937 116.601 53.906C115.948 54.0184 115.276 53.8665 114.735 53.4839L105.495 46.9552C104.367 46.1584 104.099 44.5984 104.896 43.4708C105.693 42.3432 107.253 42.0749 108.38 42.8717L112.799 45.9937C110.763 36.6954 106.138 27.8542 98.9212 20.6203C78.808 0.4599 46.1917 0.459897 26.0785 20.6203C18.1144 28.603 13.3074 38.5431 11.6519 48.8948L6.71463 48.1052C8.53048 36.7511 13.8071 25.8411 22.5388 17.0889ZM7.86414 61.1937C8.55847 61.0269 9.29101 61.1649 9.87699 61.573L19.7582 68.455C20.8912 69.2441 21.17 70.8022 20.3809 71.9352C19.5918 73.0682 18.0337 73.347 16.9007 72.5579L12.4968 69.4908C14.6657 78.3213 19.1916 86.6878 26.0785 93.5908L22.5388 97.1222C14.9443 89.5099 9.96334 80.265 7.60006 70.5152L4.97707 75.4229C4.32625 76.6406 2.81151 77.1001 1.59381 76.4493C0.376105 75.7985 -0.0834447 74.2838 0.567374 73.0661L6.24336 62.4461C6.57996 61.8163 7.16981 61.3605 7.86414 61.1937ZM118.285 66.1088C116.469 77.4619 111.192 88.3707 102.461 97.1222L98.9212 93.5908C106.885 85.6087 111.692 75.6696 113.348 65.3189L118.285 66.1088Z" fill="url(#paint0_linear)"/>
<defs>
<linearGradient id="paint0_linear" x1="62.739" y1="0.5" x2="62.739" y2="97.1222" gradientUnits="userSpaceOnUse">
<stop stop-color="#B2D235"/>
<stop offset="1" stop-color="#00567D" stop-opacity="0"/>
</linearGradient>
</defs>
</svg>
