<svg width="114" height="98" viewBox="0 0 114 98" fill="none" xmlns="http://www.w3.org/2000/svg">
<path fill-rule="evenodd" clip-rule="evenodd" d="M96.9611 17.0889C74.8943 -5.02964 39.1057 -5.02964 17.0389 17.0889C-5.01298 39.1926 -5.01298 75.0185 17.0389 97.1222C18.0149 98.1005 19.5994 98.1014 20.5765 97.1243L29 88.7008C29.9763 87.7245 29.9763 86.1416 29 85.1653C28.0237 84.189 26.4408 84.189 25.4645 85.1653L23.1452 87.4846C20.8095 89.8203 16.9651 89.7416 15.0479 87.0517C11.1762 81.6193 8.48198 75.6037 6.96526 69.3596C6.86475 68.9458 7.12664 68.5328 7.54233 68.4405L16.5423 66.4405C17.8902 66.1409 18.74 64.8055 18.4405 63.4577C18.1409 62.1098 16.8055 61.26 15.4577 61.5595L6.45767 63.5595C6.1675 63.624 5.88444 63.4251 5.85001 63.1299C4.50867 51.6288 7.02262 39.7621 13.3918 29.6315C13.8898 28.8396 14.9577 28.6609 15.7068 29.2212L23.3597 34.9458C24.4654 35.7728 26.0321 35.547 26.8591 34.4414C27.6861 33.3358 27.4603 31.769 26.3547 30.942L18.7017 25.2174C17.9554 24.6592 17.8265 23.5884 18.4443 22.8907C19.1286 22.1178 19.84 21.3606 20.5786 20.6203C29.8876 11.2895 41.8748 6.27729 54.0611 5.58358C54.2999 5.56998 54.5 5.76077 54.5 6V16C54.5 17.3807 55.6193 18.5 57 18.5C58.3807 18.5 59.5 17.3807 59.5 16V6C59.5 5.76077 59.7001 5.56998 59.9389 5.58358C72.1252 6.27728 84.1124 11.2895 93.4214 20.6203C94.3271 21.5282 95.1921 22.4615 96.0162 23.4178C96.4854 23.9623 96.3839 24.7869 95.8083 25.2174L88.1553 30.942C87.0497 31.769 86.8239 33.3358 87.6509 34.4414C88.4779 35.547 90.0446 35.7728 91.1503 34.9458L98.8032 29.2212C99.3665 28.7999 100.169 28.9368 100.545 29.5315C106.961 39.6839 109.496 51.5909 108.15 63.1299C108.116 63.4251 107.832 63.624 107.542 63.5595L98.5423 61.5595C97.1945 61.26 95.8591 62.1098 95.5595 63.4577C95.26 64.8055 96.1098 66.1409 97.4577 66.4405L106.458 68.4405C106.873 68.5328 107.135 68.9458 107.035 69.3596C105.518 75.6037 102.824 81.6193 98.9521 87.0517C97.0349 89.7416 93.1906 89.8203 90.8548 87.4846L88.5355 85.1653C87.5592 84.189 85.9763 84.189 85 85.1653C84.0237 86.1416 84.0237 87.7245 85 88.7008L93.4235 97.1243C94.4006 98.1014 95.9851 98.1005 96.9611 97.1222C119.013 75.0185 119.013 39.1926 96.9611 17.0889Z" fill="url(#paint0_linear)"/>
<defs>
<linearGradient id="paint0_linear" x1="57" y1="0.5" x2="57" y2="97.8565" gradientUnits="userSpaceOnUse">
<stop stop-color="#B2D235"/>
<stop offset="1" stop-color="#00567D" stop-opacity="0"/>
</linearGradient>
</defs>
</svg>
